<?xml version="1.0" encoding="UTF-8" standalone="no" ?>
<!DOCTYPE svg PUBLIC "-//W3C//DTD SVG 1.1//EN" "http://www.w3.org/Graphics/SVG/1.1/DTD/svg11.dtd">
<svg xmlns="http://www.w3.org/2000/svg" xmlns:xlink="http://www.w3.org/1999/xlink" version="1.1" width="100" height="1080" viewBox="0 0 1080 1080" xml:space="preserve">
<desc>Created with Fabric.js 5.2.4</desc>
<defs>
</defs>
<rect x="0" y="0" width="100%" height="100%" fill="transparent"></rect>
<g transform="matrix(0 0 0 0 0 0)" id="37715afe-a989-4435-b3f7-aa32e3fad98c"  >
</g>
<g transform="matrix(1 0 0 1 540 540)" id="60e69b83-80f4-4337-b134-0d2a840854d3"  >
<rect style="stroke: none; stroke-width: 1; stroke-dasharray: none; stroke-linecap: butt; stroke-dashoffset: 0; stroke-linejoin: miter; stroke-miterlimit: 4; fill: rgb(255,255,255); fill-rule: nonzero; opacity: 1; visibility: hidden;" vector-effect="non-scaling-stroke"  x="-540" y="-540" rx="0" ry="0" width="1080" height="1080" />
</g>
<g transform="matrix(1 0 0 1 557.06 533.51)"  >
<path style="stroke: none; stroke-width: 1; stroke-dasharray: none; stroke-linecap: butt; stroke-dashoffset: 0; stroke-linejoin: miter; stroke-miterlimit: 4; fill: rgb(255,109,0); fill-rule: evenodd; opacity: 1;" vector-effect="non-scaling-stroke"  transform=" translate(-55.06, -16.38)" d="M 45.6293 19.0739 C 43.6548 17.8201 43.6548 14.9348 45.6293 13.681 L 61.0813 3.86867 C 63.2038 2.52087 65.9762 4.04812 65.9762 6.56514 L 65.9762 16.3774 L 65.9762 26.1897 C 65.9762 28.7067 63.2038 30.234 61.0813 28.8862 L 45.6293 19.0739 Z" stroke-linecap="round" />
</g>
<g transform="matrix(1 0 0 1 540.47 533.51)"  >
<path style="stroke: none; stroke-width: 1; stroke-dasharray: none; stroke-linecap: butt; stroke-dashoffset: 0; stroke-linejoin: miter; stroke-miterlimit: 4; fill: rgb(23,30,38); fill-rule: evenodd; opacity: 1;" vector-effect="non-scaling-stroke"  transform=" translate(-38.46, -16.38)" d="M 23.646 3.78011 C 23.2373 3.57345 23.0705 3.05973 23.36 2.70575 C 24.7102 1.05462 26.7678 0 29.0728 0 L 48.4642 0 C 51.4015 0 53.9372 1.71266 55.1191 4.18992 C 55.2692 4.5045 55.1422 4.87393 54.8465 5.05997 L 41.8666 13.2272 C 39.5796 14.6662 39.5796 17.9877 41.8666 19.4266 L 54.8834 27.617 C 55.1762 27.8013 55.3041 28.1658 55.1595 28.4793 C 53.9956 31.0028 51.4354 32.7552 48.4642 32.7552 L 29.0728 32.7552 C 25.0059 32.7552 21.709 29.472 21.709 25.4219 L 21.709 23.8045 C 21.709 23.7851 21.7178 23.7668 21.7331 23.7548 C 21.7804 23.7178 21.8348 23.6908 21.8924 23.6735 C 26.3315 22.3376 29.5637 18.2328 29.5637 13.3763 C 29.5637 9.18606 27.1575 5.55548 23.646 3.78011 Z" stroke-linecap="round" />
</g>
<g transform="matrix(1 0 0 1 520.78 531.83)"  >
<path style="stroke: none; stroke-width: 1; stroke-dasharray: none; stroke-linecap: butt; stroke-dashoffset: 0; stroke-linejoin: miter; stroke-miterlimit: 4; fill: rgb(255,109,0); fill-rule: evenodd; opacity: 1;" vector-effect="non-scaling-stroke"  transform=" translate(-18.79, -14.69)" d="M 21.3406 21.826 C 21.2828 21.8434 21.228 21.8702 21.1806 21.9073 C 20.3754 22.5373 19.7509 23.428 19.307 24.2129 C 19.0941 24.5892 18.4966 24.5797 18.2851 24.2026 C 17.6748 23.1142 16.9496 22.3629 16.3477 21.8945 C 16.3008 21.8579 16.2468 21.8313 16.1898 21.8138 C 12.618 20.7216 10.0234 17.4345 10.0234 13.549 C 10.0234 8.77145 13.9463 4.89844 18.7853 4.89844 C 23.6243 4.89844 27.5471 8.77145 27.5471 13.549 C 27.5471 17.449 24.9332 20.7462 21.3406 21.826 Z M 15.5767 15.133 C 16.1901 15.133 16.6874 14.642 16.6874 14.0364 C 16.6874 13.4308 16.1901 12.9398 15.5767 12.9398 C 14.9633 12.9398 14.4661 13.4308 14.4661 14.0364 C 14.4661 14.642 14.9633 15.133 15.5767 15.133 Z M 18.7853 15.133 C 19.3987 15.133 19.8959 14.642 19.8959 14.0364 C 19.8959 13.4308 19.3987 12.9398 18.7853 12.9398 C 18.1719 12.9398 17.6746 13.4308 17.6746 14.0364 C 17.6746 14.642 18.1719 15.133 18.7853 15.133 Z M 23.1045 14.0364 C 23.1045 14.642 22.6072 15.133 21.9938 15.133 C 21.3805 15.133 20.8832 14.642 20.8832 14.0364 C 20.8832 13.4308 21.3805 12.9398 21.9938 12.9398 C 22.6072 12.9398 23.1045 13.4308 23.1045 14.0364 Z" stroke-linecap="round" />
</g>
<g transform="matrix(1 0 0 1 573.1 557.49)"  >
<path style="stroke: none; stroke-width: 1; stroke-dasharray: none; stroke-linecap: butt; stroke-dashoffset: 0; stroke-linejoin: miter; stroke-miterlimit: 4; fill: rgb(23,30,38); fill-rule: nonzero; opacity: 1;" vector-effect="non-scaling-stroke"  transform=" translate(-71.09, -40.36)" d="M 66.6425 44.9513 C 66.3966 44.9513 66.1875 44.7431 66.1875 44.4982 L 66.1875 39.6492 C 66.1875 39.3921 66.3966 39.1962 66.6425 39.1962 L 71.8935 39.1962 C 72.1517 39.1962 72.3608 38.988 72.3608 38.7309 L 72.3608 38.3023 C 72.3608 38.0451 72.1517 37.837 71.8935 37.837 L 66.6425 37.837 C 66.3966 37.837 66.1875 37.6288 66.1875 37.3839 L 66.1875 36.2329 C 66.1875 35.9757 66.3966 35.7676 66.6425 35.7676 L 72.3608 35.7676 C 73.6274 35.7676 74.6604 36.7962 74.6604 38.0696 L 74.6604 39.2206 C 74.6604 39.3309 74.7218 39.4288 74.8202 39.4778 C 75.5335 39.8819 76.0008 40.6288 76.0008 41.486 L 76.0008 42.6615 C 76.0008 43.9227 74.9678 44.9513 73.7012 44.9513 L 66.6425 44.9513 Z M 68.4871 41.7186 L 68.4871 42.4288 C 68.4871 42.686 68.6962 42.8819 68.9544 42.8819 L 73.2339 42.8819 C 73.4921 42.8819 73.7012 42.686 73.7012 42.4288 L 73.7012 41.7186 C 73.7012 41.4615 73.4921 41.2533 73.2339 41.2533 L 68.9544 41.2533 C 68.6962 41.2533 68.4871 41.4615 68.4871 41.7186 Z" stroke-linecap="round" />
</g>
<g transform="matrix(1 0 0 1 561.6 557.49)"  >
<path style="stroke: none; stroke-width: 1; stroke-dasharray: none; stroke-linecap: butt; stroke-dashoffset: 0; stroke-linejoin: miter; stroke-miterlimit: 4; fill: rgb(23,30,38); fill-rule: nonzero; opacity: 1;" vector-effect="non-scaling-stroke"  transform=" translate(-59.6, -40.36)" d="M 56.8973 44.9513 C 55.6306 44.9513 54.5977 43.9227 54.5977 42.6615 L 54.5977 36.2329 C 54.5977 35.9757 54.8067 35.7676 55.0527 35.7676 L 56.4423 35.7676 C 56.7005 35.7676 56.8973 35.9757 56.8973 36.2329 L 56.8973 41.7431 C 56.8973 42.3676 57.4137 42.8819 58.0532 42.8819 L 61.1398 42.8819 C 61.7793 42.8819 62.2958 42.3676 62.2958 41.7431 L 62.2958 36.2329 C 62.2958 35.9757 62.5048 35.7676 62.7508 35.7676 L 64.1404 35.7676 C 64.3863 35.7676 64.5954 35.9757 64.5954 36.2329 L 64.5954 42.6615 C 64.5954 43.9227 63.5624 44.9513 62.2958 44.9513 L 56.8973 44.9513 Z" stroke-linecap="round" />
</g>
<g transform="matrix(1 0 0 1 549.99 557.49)"  >
<path style="stroke: none; stroke-width: 1; stroke-dasharray: none; stroke-linecap: butt; stroke-dashoffset: 0; stroke-linejoin: miter; stroke-miterlimit: 4; fill: rgb(23,30,38); fill-rule: nonzero; opacity: 1;" vector-effect="non-scaling-stroke"  transform=" translate(-47.99, -40.36)" d="M 43.4296 44.9513 C 43.1837 44.9513 42.9746 44.7431 42.9746 44.4982 L 42.9746 36.2329 C 42.9746 35.9757 43.1837 35.7676 43.4296 35.7676 L 44.8192 35.7676 C 45.0775 35.7676 45.2742 35.9757 45.2742 36.2329 L 45.2742 44.4982 C 45.2742 44.7431 45.0775 44.9513 44.8192 44.9513 L 43.4296 44.9513 Z M 46.59 41.2533 C 46.3318 41.2533 46.1227 41.0574 46.1227 40.8002 L 46.1227 39.6492 C 46.1227 39.3921 46.3318 39.1962 46.59 39.1962 L 50.2423 39.1962 C 50.5006 39.1962 50.7096 38.988 50.7096 38.7309 L 50.7096 36.2329 C 50.7096 35.9757 50.9187 35.7676 51.1646 35.7676 L 52.5542 35.7676 C 52.8125 35.7676 53.0092 35.9757 53.0092 36.2329 L 53.0092 44.4982 C 53.0092 44.7431 52.8125 44.9513 52.5542 44.9513 L 51.1646 44.9513 C 50.9187 44.9513 50.7096 44.7431 50.7096 44.4982 L 50.7096 41.7186 C 50.7096 41.4615 50.5006 41.2533 50.2423 41.2533 L 46.59 41.2533 Z" stroke-linecap="round" />
</g>
<g transform="matrix(1 0 0 1 537.98 557.49)"  >
<path style="stroke: none; stroke-width: 1; stroke-dasharray: none; stroke-linecap: butt; stroke-dashoffset: 0; stroke-linejoin: miter; stroke-miterlimit: 4; fill: rgb(23,30,38); fill-rule: nonzero; opacity: 1;" vector-effect="non-scaling-stroke"  transform=" translate(-35.99, -40.36)" d="M 30.8245 44.9513 C 30.5048 44.9513 30.2834 44.6329 30.3941 44.3268 L 33.5299 36.2206 C 33.6283 35.9513 33.8865 35.7676 34.1694 35.7676 L 37.8094 35.7676 C 38.0922 35.7676 38.3505 35.9513 38.4488 36.2206 L 41.5847 44.3268 C 41.6953 44.6329 41.474 44.9513 41.1543 44.9513 L 39.5187 44.9513 C 39.322 44.9513 39.1498 44.8288 39.0883 44.6574 L 36.7272 38.1308 C 36.6534 37.9594 36.4813 37.837 36.2968 37.837 L 35.6819 37.837 C 35.4975 37.837 35.3253 37.9594 35.2515 38.1308 L 33.6652 42.2574 C 33.5422 42.5635 33.7759 42.8819 34.0956 42.8819 L 36.8133 42.8819 C 37.0715 42.8819 37.2929 43.0411 37.3913 43.2737 L 37.7971 44.3268 C 37.9078 44.6329 37.6864 44.9513 37.3667 44.9513 L 30.8245 44.9513 Z" stroke-linecap="round" />
</g>
<g transform="matrix(1 0 0 1 527.67 557.49)"  >
<path style="stroke: none; stroke-width: 1; stroke-dasharray: none; stroke-linecap: butt; stroke-dashoffset: 0; stroke-linejoin: miter; stroke-miterlimit: 4; fill: rgb(23,30,38); fill-rule: nonzero; opacity: 1;" vector-effect="non-scaling-stroke"  transform=" translate(-25.67, -40.36)" d="M 21.0741 37.837 C 20.8282 37.837 20.6191 37.6288 20.6191 37.3839 L 20.6191 36.2329 C 20.6191 35.9757 20.8282 35.7676 21.0741 35.7676 L 30.2602 35.7676 C 30.5185 35.7676 30.7275 35.9757 30.7275 36.2329 L 30.7275 37.3839 C 30.7275 37.6288 30.5185 37.837 30.2602 37.837 L 21.0741 37.837 Z M 24.9847 38.6696 L 26.362 38.6696 C 26.6202 38.6696 26.8293 38.8655 26.8293 39.1227 L 26.8293 44.4982 C 26.8293 44.7431 26.6202 44.9513 26.362 44.9513 L 24.9847 44.9513 C 24.7264 44.9513 24.5174 44.7431 24.5174 44.4982 L 24.5174 39.1227 C 24.5174 38.8655 24.7264 38.6696 24.9847 38.6696 Z" stroke-linecap="round" />
</g>
<g transform="matrix(1 0 0 1 506.39 557.49)"  >
<path style="stroke: none; stroke-width: 1; stroke-dasharray: none; stroke-linecap: butt; stroke-dashoffset: 0; stroke-linejoin: miter; stroke-miterlimit: 4; fill: rgb(23,30,38); fill-rule: nonzero; opacity: 1;" vector-effect="non-scaling-stroke"  transform=" translate(-4.39, -40.35)" d="M 0.700948 37.8375 C 0.455001 37.8375 0.245947 37.6293 0.245947 37.3844 L 0.245947 36.2334 C 0.245947 35.9763 0.455001 35.7681 0.700948 35.7681 L 8.19002 35.7559 C 8.44827 35.7559 8.64502 35.964 8.64502 36.2212 L 8.64502 37.3722 C 8.64502 37.6171 8.44827 37.8253 8.19002 37.8253 L 0.700948 37.8375 Z M 0.455001 44.9518 C 0.209055 44.9518 0 44.7436 0 44.4987 L 0 42.9559 C 0 42.6865 0.122973 42.4171 0.344325 42.2457 L 4.48852 38.8661 C 4.66069 38.7436 4.86974 38.6702 5.0788 38.6702 L 7.52597 38.6702 C 7.75961 38.6702 7.85799 38.9518 7.68583 39.0987 L 3.51704 42.4783 C 3.35717 42.613 3.45555 42.8824 3.6646 42.8824 L 8.32529 42.8824 C 8.58354 42.8824 8.78029 43.0906 8.78029 43.3477 L 8.78029 44.4987 C 8.78029 44.7436 8.58354 44.9518 8.32529 44.9518 L 0.455001 44.9518 Z" stroke-linecap="round" />
</g>
<g transform="matrix(0.9 0 0 0.9 516.44 557.94)"  >
<path style="stroke: none; stroke-width: 1; stroke-dasharray: none; stroke-linecap: butt; stroke-dashoffset: 0; stroke-linejoin: miter; stroke-miterlimit: 4; fill: rgb(23,30,38); fill-rule: nonzero; opacity: 1;" vector-effect="non-scaling-stroke"  transform=" translate(-59.6, -40.36)" d="M 56.8973 44.9513 C 55.6306 44.9513 54.5977 43.9227 54.5977 42.6615 L 54.5977 36.2329 C 54.5977 35.9757 54.8067 35.7676 55.0527 35.7676 L 56.4423 35.7676 C 56.7005 35.7676 56.8973 35.9757 56.8973 36.2329 L 56.8973 41.7431 C 56.8973 42.3676 57.4137 42.8819 58.0532 42.8819 L 61.1398 42.8819 C 61.7793 42.8819 62.2958 42.3676 62.2958 41.7431 L 62.2958 36.2329 C 62.2958 35.9757 62.5048 35.7676 62.7508 35.7676 L 64.1404 35.7676 C 64.3863 35.7676 64.5954 35.9757 64.5954 36.2329 L 64.5954 42.6615 C 64.5954 43.9227 63.5624 44.9513 62.2958 44.9513 L 56.8973 44.9513 Z" stroke-linecap="round" />
</g>
<g transform="matrix(-0.9 0 0 -0.9 516.54 556.91)"  >
<path style="stroke: none; stroke-width: 1; stroke-dasharray: none; stroke-linecap: butt; stroke-dashoffset: 0; stroke-linejoin: miter; stroke-miterlimit: 4; fill: rgb(23,30,38); fill-rule: nonzero; opacity: 1;" vector-effect="non-scaling-stroke"  transform=" translate(-59.6, -40.36)" d="M 56.8973 44.9513 C 55.6306 44.9513 54.5977 43.9227 54.5977 42.6615 L 54.5977 36.2329 C 54.5977 35.9757 54.8067 35.7676 55.0527 35.7676 L 56.4423 35.7676 C 56.7005 35.7676 56.8973 35.9757 56.8973 36.2329 L 56.8973 41.7431 C 56.8973 42.3676 57.4137 42.8819 58.0532 42.8819 L 61.1398 42.8819 C 61.7793 42.8819 62.2958 42.3676 62.2958 41.7431 L 62.2958 36.2329 C 62.2958 35.9757 62.5048 35.7676 62.7508 35.7676 L 64.1404 35.7676 C 64.3863 35.7676 64.5954 35.9757 64.5954 36.2329 L 64.5954 42.6615 C 64.5954 43.9227 63.5624 44.9513 62.2958 44.9513 L 56.8973 44.9513 Z" stroke-linecap="round" />
</g>
</svg>