<?xml version="1.0" encoding="utf-8"?>
<svg width="76" height="46" viewBox="0 0 76 46" fill="none" xmlnsXlink="http://www.w3.org/2000/svg" xmlnsBx="https://boxy-svg.com">
  <defs>
    <bxGuide x="23.996" y="35.829" angle="90"/>
    <bxGuide x="23.443" y="44.962" angle="90"/>
  </defs>
  <path fill-rule="evenodd" clip-rule="evenodd" d="M45.6293 19.0739C43.6548 17.8201 43.6548 14.9348 45.6293 13.681L61.0813 3.86867C63.2038 2.52087 65.9762 4.04812 65.9762 6.56514V16.3774V26.1897C65.9762 28.7067 63.2038 30.234 61.0813 28.8862L45.6293 19.0739Z" fill="#FF6D00"/>
  <path fill-rule="evenodd" clip-rule="evenodd" d="M23.646 3.78011C23.2373 3.57345 23.0705 3.05973 23.36 2.70575C24.7102 1.05462 26.7678 0 29.0728 0H48.4642C51.4015 0 53.9372 1.71266 55.1191 4.18992C55.2692 4.5045 55.1422 4.87393 54.8465 5.05997L41.8666 13.2272C39.5796 14.6662 39.5796 17.9877 41.8666 19.4266L54.8834 27.617C55.1762 27.8013 55.3041 28.1658 55.1595 28.4793C53.9956 31.0028 51.4354 32.7552 48.4642 32.7552H29.0728C25.0059 32.7552 21.709 29.472 21.709 25.4219V23.8045C21.709 23.7851 21.7178 23.7668 21.7331 23.7548C21.7804 23.7178 21.8348 23.6908 21.8924 23.6735C26.3315 22.3376 29.5637 18.2328 29.5637 13.3763C29.5637 9.18606 27.1575 5.55548 23.646 3.78011Z" fill="#171E26"/>
  <path fill-rule="evenodd" clip-rule="evenodd" d="M21.3406 21.826C21.2828 21.8434 21.228 21.8702 21.1806 21.9073C20.3754 22.5373 19.7509 23.428 19.307 24.2129C19.0941 24.5892 18.4966 24.5797 18.2851 24.2026C17.6748 23.1142 16.9496 22.3629 16.3477 21.8945C16.3008 21.8579 16.2468 21.8313 16.1898 21.8138C12.618 20.7216 10.0234 17.4345 10.0234 13.549C10.0234 8.77145 13.9463 4.89844 18.7853 4.89844C23.6243 4.89844 27.5471 8.77145 27.5471 13.549C27.5471 17.449 24.9332 20.7462 21.3406 21.826ZM15.5767 15.133C16.1901 15.133 16.6874 14.642 16.6874 14.0364C16.6874 13.4308 16.1901 12.9398 15.5767 12.9398C14.9633 12.9398 14.4661 13.4308 14.4661 14.0364C14.4661 14.642 14.9633 15.133 15.5767 15.133ZM18.7853 15.133C19.3987 15.133 19.8959 14.642 19.8959 14.0364C19.8959 13.4308 19.3987 12.9398 18.7853 12.9398C18.1719 12.9398 17.6746 13.4308 17.6746 14.0364C17.6746 14.642 18.1719 15.133 18.7853 15.133ZM23.1045 14.0364C23.1045 14.642 22.6072 15.133 21.9938 15.133C21.3805 15.133 20.8832 14.642 20.8832 14.0364C20.8832 13.4308 21.3805 12.9398 21.9938 12.9398C22.6072 12.9398 23.1045 13.4308 23.1045 14.0364Z" fill="#FF6D00"/>
  <path d="M66.6425 44.9513C66.3966 44.9513 66.1875 44.7431 66.1875 44.4982V39.6492C66.1875 39.3921 66.3966 39.1962 66.6425 39.1962H71.8935C72.1517 39.1962 72.3608 38.988 72.3608 38.7309V38.3023C72.3608 38.0451 72.1517 37.837 71.8935 37.837H66.6425C66.3966 37.837 66.1875 37.6288 66.1875 37.3839V36.2329C66.1875 35.9757 66.3966 35.7676 66.6425 35.7676H72.3608C73.6274 35.7676 74.6604 36.7962 74.6604 38.0696V39.2206C74.6604 39.3309 74.7218 39.4288 74.8202 39.4778C75.5335 39.8819 76.0008 40.6288 76.0008 41.486V42.6615C76.0008 43.9227 74.9678 44.9513 73.7012 44.9513H66.6425ZM68.4871 41.7186V42.4288C68.4871 42.686 68.6962 42.8819 68.9544 42.8819H73.2339C73.4921 42.8819 73.7012 42.686 73.7012 42.4288V41.7186C73.7012 41.4615 73.4921 41.2533 73.2339 41.2533H68.9544C68.6962 41.2533 68.4871 41.4615 68.4871 41.7186Z" fill="#171E26"/>
  <path d="M56.8973 44.9513C55.6306 44.9513 54.5977 43.9227 54.5977 42.6615V36.2329C54.5977 35.9757 54.8067 35.7676 55.0527 35.7676H56.4423C56.7005 35.7676 56.8973 35.9757 56.8973 36.2329V41.7431C56.8973 42.3676 57.4137 42.8819 58.0532 42.8819H61.1398C61.7793 42.8819 62.2958 42.3676 62.2958 41.7431V36.2329C62.2958 35.9757 62.5048 35.7676 62.7508 35.7676H64.1404C64.3863 35.7676 64.5954 35.9757 64.5954 36.2329V42.6615C64.5954 43.9227 63.5624 44.9513 62.2958 44.9513H56.8973Z" fill="#171E26"/>
  <path d="M 21.619 44.962 C 21.373 44.962 21.164 44.754 21.164 44.509 L 21.164 36.244 C 21.164 35.986 21.373 35.778 21.619 35.778 L 23.009 35.778 C 23.267 35.778 23.464 35.986 23.464 36.244 L 23.464 44.509 C 23.464 44.754 23.267 44.962 23.009 44.962 L 21.619 44.962 Z M 24.779 41.264 C 24.521 41.264 24.312 41.068 24.312 40.811 L 24.312 39.66 C 24.312 39.403 24.521 39.207 24.779 39.207 L 28.432 39.207 C 28.69 39.207 28.899 38.999 28.899 38.742 L 28.899 36.244 C 28.899 35.986 29.108 35.778 29.354 35.778 L 30.744 35.778 C 31.002 35.778 31.199 35.986 31.199 36.244 L 31.199 44.509 C 31.199 44.754 31.002 44.962 30.744 44.962 L 29.354 44.962 C 29.108 44.962 28.899 44.754 28.899 44.509 L 28.899 41.729 C 28.899 41.472 28.69 41.264 28.432 41.264 L 24.779 41.264 Z" fill="#171E26"/>
  <path d="M 32.817 44.962 C 32.497 44.962 32.276 44.644 32.387 44.337 L 35.522 36.231 C 35.621 35.962 35.879 35.778 36.162 35.778 L 39.802 35.778 C 40.085 35.778 40.343 35.962 40.441 36.231 L 43.577 44.337 C 43.688 44.644 43.466 44.962 43.147 44.962 L 41.511 44.962 C 41.314 44.962 41.142 44.839 41.081 44.668 L 38.72 38.141 C 38.646 37.97 38.474 37.848 38.289 37.848 L 37.674 37.848 C 37.49 37.848 37.318 37.97 37.244 38.141 L 35.658 42.268 C 35.535 42.574 35.768 42.893 36.088 42.893 L 38.806 42.893 C 39.064 42.893 39.285 43.052 39.384 43.284 L 39.79 44.337 C 39.9 44.644 39.679 44.962 39.359 44.962 L 32.817 44.962 Z" fill="#171E26"/>
  <path d="M 43.714 37.848 C 43.468 37.848 43.259 37.639 43.259 37.395 L 43.259 36.244 C 43.259 35.986 43.468 35.778 43.714 35.778 L 52.9 35.778 C 53.159 35.778 53.368 35.986 53.368 36.244 L 53.368 37.395 C 53.368 37.639 53.159 37.848 52.9 37.848 L 43.714 37.848 Z M 47.625 38.68 L 49.002 38.68 C 49.26 38.68 49.469 38.876 49.469 39.133 L 49.469 44.509 C 49.469 44.754 49.26 44.962 49.002 44.962 L 47.625 44.962 C 47.367 44.962 47.158 44.754 47.158 44.509 L 47.158 39.133 C 47.158 38.876 47.367 38.68 47.625 38.68 Z" fill="#171E26"/>
  <path d="M0.700948 37.8375C0.455001 37.8375 0.245947 37.6293 0.245947 37.3844V36.2334C0.245947 35.9763 0.455001 35.7681 0.700948 35.7681L8.19002 35.7559C8.44827 35.7559 8.64502 35.964 8.64502 36.2212V37.3722C8.64502 37.6171 8.44827 37.8253 8.19002 37.8253L0.700948 37.8375ZM0.455001 44.9518C0.209055 44.9518 0 44.7436 0 44.4987V42.9559C0 42.6865 0.122973 42.4171 0.344325 42.2457L4.48852 38.8661C4.66069 38.7436 4.86974 38.6702 5.0788 38.6702H7.52597C7.75961 38.6702 7.85799 38.9518 7.68583 39.0987L3.51704 42.4783C3.35717 42.613 3.45555 42.8824 3.6646 42.8824H8.32529C8.58354 42.8824 8.78029 43.0906 8.78029 43.3477V44.4987C8.78029 44.7436 8.58354 44.9518 8.32529 44.9518H0.455001Z" fill="#171E26"/>
  <path d="M 12.219 45.012 C 10.952 45.012 9.919 44.195 9.919 43.192 L 9.919 38.081 C 9.919 37.876 10.128 37.711 10.374 37.711 L 11.764 37.711 C 12.022 37.711 12.219 37.876 12.219 38.081 L 12.219 42.461 C 12.219 42.958 12.735 43.367 13.375 43.367 L 16.461 43.367 C 17.101 43.367 17.617 42.958 17.617 42.461 L 17.617 38.081 C 17.617 37.876 17.826 37.711 18.072 37.711 L 19.462 37.711 C 19.708 37.711 19.917 37.876 19.917 38.081 L 19.917 43.192 C 19.917 44.195 18.884 45.012 17.617 45.012 L 12.219 45.012 Z" fill="#171E26" style=""/>
  <path d="M 12.164 35.779 C 10.897 35.779 9.864 36.652 9.864 37.723 L 9.864 43.183 C 9.864 43.401 10.073 43.578 10.319 43.578 L 11.709 43.578 C 11.967 43.578 12.164 43.401 12.164 43.183 L 12.164 38.504 C 12.164 37.973 12.68 37.536 13.32 37.536 L 16.406 37.536 C 17.046 37.536 17.562 37.973 17.562 38.504 L 17.562 43.183 C 17.562 43.401 17.771 43.578 18.017 43.578 L 19.407 43.578 C 19.653 43.578 19.862 43.401 19.862 43.183 L 19.862 37.723 C 19.862 36.652 18.829 35.779 17.562 35.779 L 12.164 35.779 Z" fill="#171E26" style=""/>
</svg>