<svg width="725" height="426" viewBox="0 0 725 426" fill="none" xmlns="http://www.w3.org/2000/svg">
<path fill-rule="evenodd" clip-rule="evenodd" d="M461.23 247.962C435.672 231.663 435.672 194.154 461.23 177.854L661.25 50.2948C688.724 32.7734 724.612 52.6277 724.612 85.3488V212.908V340.468C724.612 373.189 688.724 393.043 661.25 375.522L461.23 247.962Z" fill="#FF6D00"/>
<path fill-rule="evenodd" clip-rule="evenodd" d="M176.626 49.1414C171.334 46.4548 169.175 39.7764 172.922 35.1747C190.401 13.7101 217.036 0 246.873 0H497.886C535.908 0 568.731 22.2645 584.031 54.4688C585.974 58.5583 584.33 63.361 580.503 65.7794L412.482 171.953C382.879 190.66 382.879 233.839 412.482 252.546L580.979 359.021C584.77 361.416 586.425 366.155 584.553 370.23C569.487 403.036 536.347 425.816 497.886 425.816H246.873C194.228 425.816 151.551 383.135 151.551 330.484V309.457C151.551 309.206 151.666 308.967 151.864 308.811C152.476 308.33 153.18 307.979 153.925 307.754C211.387 290.387 253.227 237.026 253.227 173.891C253.227 119.418 222.08 72.2211 176.626 49.1414Z" fill="#171E26"/>
<path fill-rule="evenodd" clip-rule="evenodd" d="M146.822 283.731C146.074 283.957 145.365 284.306 144.751 284.788C134.328 292.978 126.244 304.558 120.498 314.76C117.743 319.653 110.008 319.529 107.271 314.627C99.3703 300.478 89.983 290.711 82.1919 284.621C81.5847 284.146 80.8858 283.799 80.1471 283.573C33.9114 269.374 0.326538 226.641 0.326538 176.131C0.326538 114.022 51.1058 63.6735 113.745 63.6735C176.384 63.6735 227.163 114.022 227.163 176.131C227.163 226.831 193.326 269.694 146.822 283.731ZM72.2114 196.722C80.1514 196.722 86.5884 190.34 86.5884 182.467C86.5884 174.594 80.1514 168.212 72.2114 168.212C64.2714 168.212 57.8344 174.594 57.8344 182.467C57.8344 190.34 64.2714 196.722 72.2114 196.722ZM113.745 196.722C121.685 196.722 128.122 190.34 128.122 182.467C128.122 174.594 121.685 168.212 113.745 168.212C105.805 168.212 99.3679 174.594 99.3679 182.467C99.3679 190.34 105.805 196.722 113.745 196.722ZM169.655 182.467C169.655 190.34 163.218 196.722 155.278 196.722C147.338 196.722 140.901 190.34 140.901 182.467C140.901 174.594 147.338 168.212 155.278 168.212C163.218 168.212 169.655 174.594 169.655 182.467Z" fill="#FF6D00"/>
</svg>
