<?xml version="1.0" encoding="utf-8"?>
<svg width="76" height="46" viewBox="0 0 76 46" fill="none" xmlns="http://www.w3.org/2000/svg">
  <path fill-rule="evenodd" clip-rule="evenodd" d="M45.6293 19.0739C43.6548 17.8201 43.6548 14.9348 45.6293 13.681L61.0813 3.86867C63.2038 2.52087 65.9762 4.04812 65.9762 6.56514V16.3774V26.1897C65.9762 28.7067 63.2038 30.234 61.0813 28.8862L45.6293 19.0739Z" fill="#FF6D00" id="object-3"/>
  <path fill-rule="evenodd" clip-rule="evenodd" d="M23.646 3.78011C23.2373 3.57345 23.0705 3.05973 23.36 2.70575C24.7102 1.05462 26.7678 0 29.0728 0H48.4642C51.4015 0 53.9372 1.71266 55.1191 4.18992C55.2692 4.5045 55.1422 4.87393 54.8465 5.05997L41.8666 13.2272C39.5796 14.6662 39.5796 17.9877 41.8666 19.4266L54.8834 27.617C55.1762 27.8013 55.3041 28.1658 55.1595 28.4793C53.9956 31.0028 51.4354 32.7552 48.4642 32.7552H29.0728C25.0059 32.7552 21.709 29.472 21.709 25.4219V23.8045C21.709 23.7851 21.7178 23.7668 21.7331 23.7548C21.7804 23.7178 21.8348 23.6908 21.8924 23.6735C26.3315 22.3376 29.5637 18.2328 29.5637 13.3763C29.5637 9.18606 27.1575 5.55548 23.646 3.78011Z" fill="#171E26" id="object-1"/>
  <path fill-rule="evenodd" clip-rule="evenodd" d="M21.3406 21.826C21.2828 21.8434 21.228 21.8702 21.1806 21.9073C20.3754 22.5373 19.7509 23.428 19.307 24.2129C19.0941 24.5892 18.4966 24.5797 18.2851 24.2026C17.6748 23.1142 16.9496 22.3629 16.3477 21.8945C16.3008 21.8579 16.2468 21.8313 16.1898 21.8138C12.618 20.7216 10.0234 17.4345 10.0234 13.549C10.0234 8.77145 13.9463 4.89844 18.7853 4.89844C23.6243 4.89844 27.5471 8.77145 27.5471 13.549C27.5471 17.449 24.9332 20.7462 21.3406 21.826ZM15.5767 15.133C16.1901 15.133 16.6874 14.642 16.6874 14.0364C16.6874 13.4308 16.1901 12.9398 15.5767 12.9398C14.9633 12.9398 14.4661 13.4308 14.4661 14.0364C14.4661 14.642 14.9633 15.133 15.5767 15.133ZM18.7853 15.133C19.3987 15.133 19.8959 14.642 19.8959 14.0364C19.8959 13.4308 19.3987 12.9398 18.7853 12.9398C18.1719 12.9398 17.6746 13.4308 17.6746 14.0364C17.6746 14.642 18.1719 15.133 18.7853 15.133ZM23.1045 14.0364C23.1045 14.642 22.6072 15.133 21.9938 15.133C21.3805 15.133 20.8832 14.642 20.8832 14.0364C20.8832 13.4308 21.3805 12.9398 21.9938 12.9398C22.6072 12.9398 23.1045 13.4308 23.1045 14.0364Z" fill="#FF6D00" id="object-2"/>
  <path d="M 20.173 25.371 L 20.173 22.291 Q 20.173 22.263 20.145 22.179 Q 20.117 22.095 20.061 22.039 L 19.697 21.675 Q 19.585 21.563 19.417 21.563 L 3.205 21.563 Q 3.065 21.563 2.897 21.731 L 2.589 22.179 L 2.589 25.371 L 2.813 25.791 Q 2.981 26.015 3.177 26.015 L 8.833 26.015 L 8.833 38.867 L 9.281 39.371 Q 9.421 39.511 9.589 39.511 L 13.257 39.511 Q 13.453 39.511 13.621 39.287 L 13.845 38.867 L 13.845 26.015 L 19.417 26.015 Q 19.585 26.015 19.725 25.875 Z M 25.491 39.511 L 40.779 39.511 Q 41.199 39.511 41.619 39.217 Q 42.039 38.923 42.361 38.503 Q 42.683 38.083 42.879 37.593 Q 43.075 37.103 43.075 36.683 L 43.075 24.391 Q 43.075 23.971 42.879 23.481 Q 42.683 22.991 42.361 22.571 Q 42.039 22.151 41.619 21.857 Q 41.199 21.563 40.779 21.563 L 25.491 21.563 Q 25.071 21.563 24.665 21.857 Q 24.259 22.151 23.923 22.571 Q 23.587 22.991 23.391 23.481 Q 23.195 23.971 23.195 24.391 L 23.195 36.683 Q 23.195 37.103 23.391 37.593 Q 23.587 38.083 23.923 38.503 Q 24.259 38.923 24.665 39.217 Q 25.071 39.511 25.491 39.511 Z M 38.063 26.015 L 38.063 35.031 L 28.207 35.031 L 28.207 26.015 Z M 60.66 39.035 L 51.224 29.235 L 51.224 38.867 L 50.888 39.343 Q 50.72 39.511 50.608 39.511 L 46.912 39.511 Q 46.772 39.511 46.632 39.371 L 46.212 38.867 L 46.212 22.179 Q 46.212 22.123 46.268 22.025 Q 46.324 21.927 46.352 21.871 L 46.828 21.563 L 50.524 21.563 L 51.14 21.787 L 60.632 31.755 L 60.632 22.179 Q 60.632 22.039 60.8 21.871 L 61.276 21.563 L 65.028 21.563 L 65.476 21.871 Q 65.644 22.039 65.644 22.179 L 65.644 38.867 L 65.336 39.343 Q 65.168 39.511 65.028 39.511 L 61.248 39.511 Z M 82.555 39.287 L 88.183 29.823 L 88.183 38.867 L 88.519 39.343 Q 88.687 39.511 88.799 39.511 L 92.495 39.511 Q 92.635 39.511 92.775 39.371 L 93.195 38.867 L 93.195 22.179 Q 93.195 22.011 93.055 21.871 L 92.607 21.563 L 87.651 21.563 L 87.063 21.815 Q 85.607 24.279 84.067 26.883 Q 82.527 29.487 81.015 31.951 L 74.967 21.815 L 74.351 21.563 L 69.423 21.563 L 68.975 21.871 Q 68.807 22.039 68.807 22.179 L 68.807 38.867 L 69.227 39.371 Q 69.367 39.511 69.535 39.511 L 73.203 39.511 Q 73.343 39.511 73.511 39.343 L 73.819 38.867 L 73.819 29.851 L 79.475 39.287 Q 79.531 39.343 79.615 39.413 Q 79.699 39.483 79.783 39.483 L 82.219 39.483 Q 82.303 39.483 82.401 39.413 Q 82.499 39.343 82.555 39.287 Z M 96.501 22.179 L 96.501 38.867 L 96.921 39.371 Q 97.061 39.511 97.201 39.511 L 113.413 39.511 Q 113.525 39.511 113.693 39.343 L 114.029 38.867 L 114.029 35.675 L 113.665 35.199 Q 113.637 35.143 113.539 35.087 Q 113.441 35.031 113.385 35.031 L 101.569 35.031 L 101.513 34.947 L 101.513 26.127 Q 101.513 26.099 101.541 26.071 Q 101.569 26.043 101.569 26.015 L 113.385 26.015 Q 113.441 26.015 113.539 25.959 Q 113.637 25.903 113.665 25.847 L 114.029 25.371 L 114.029 22.179 L 113.693 21.731 Q 113.525 21.563 113.413 21.563 L 97.117 21.563 L 96.641 21.871 Q 96.613 21.927 96.557 22.025 Q 96.501 22.123 96.501 22.179 Z M 112.265 28.703 L 112.013 28.423 Q 111.873 28.283 111.733 28.283 L 102.493 28.283 Q 102.325 28.283 102.213 28.395 L 101.961 28.703 Q 101.849 28.815 101.849 28.955 L 101.849 32.119 Q 101.849 32.259 101.961 32.371 L 102.213 32.679 Q 102.297 32.763 102.493 32.763 L 111.733 32.763 Q 111.929 32.763 112.013 32.679 L 112.265 32.371 Q 112.377 32.259 112.377 32.119 L 112.377 28.955 Q 112.377 28.815 112.265 28.703 Z M 117.023 22.179 L 117.023 38.867 L 117.443 39.371 Q 117.583 39.511 117.723 39.511 L 133.935 39.511 Q 134.047 39.511 134.215 39.343 L 134.551 38.867 L 134.551 35.675 L 134.187 35.199 Q 134.159 35.143 134.061 35.087 Q 133.963 35.031 133.907 35.031 L 122.091 35.031 L 122.035 34.947 L 122.035 26.127 Q 122.035 26.099 122.063 26.071 Q 122.091 26.043 122.091 26.015 L 133.907 26.015 Q 133.963 26.015 134.061 25.959 Q 134.159 25.903 134.187 25.847 L 134.551 25.371 L 134.551 22.179 L 134.215 21.731 Q 134.047 21.563 133.935 21.563 L 117.639 21.563 L 117.163 21.871 Q 117.135 21.927 117.079 22.025 Q 117.023 22.123 117.023 22.179 Z M 132.787 28.703 L 132.535 28.423 Q 132.395 28.283 132.255 28.283 L 123.015 28.283 Q 122.847 28.283 122.735 28.395 L 122.483 28.703 Q 122.371 28.815 122.371 28.955 L 122.371 32.119 Q 122.371 32.259 122.483 32.371 L 122.735 32.679 Q 122.819 32.763 123.015 32.763 L 132.255 32.763 Q 132.451 32.763 132.535 32.679 L 132.787 32.371 Q 132.899 32.259 132.899 32.119 L 132.899 28.955 Q 132.899 28.815 132.787 28.703 Z M 155.131 25.371 L 155.131 22.291 Q 155.131 22.263 155.103 22.179 Q 155.075 22.095 155.019 22.039 L 154.655 21.675 Q 154.543 21.563 154.375 21.563 L 138.163 21.563 Q 138.023 21.563 137.855 21.731 L 137.547 22.179 L 137.547 25.371 L 137.771 25.791 Q 137.939 26.015 138.135 26.015 L 143.791 26.015 L 143.791 38.867 L 144.239 39.371 Q 144.379 39.511 144.547 39.511 L 148.215 39.511 Q 148.411 39.511 148.579 39.287 L 148.803 38.867 L 148.803 26.015 L 154.375 26.015 Q 154.543 26.015 154.683 25.875 Z" transform="matrix(0.492315, 0, 0, 0.576716, -0.745976, 22.28517)" style="text-wrap-mode: nowrap; fill: rgb(23, 30, 38);"/>
  <path d="M 20.079 26.229 C 19.912 26.373 19.632 26.493 19.417 26.515 L 14.345 26.515 L 14.345 38.992 L 14.039 39.566 L 14.021 39.587 C 13.84 39.799 13.519 39.974 13.257 40.011 L 9.589 40.011 C 9.374 39.989 9.074 39.847 8.907 39.703 L 8.333 39.057 L 8.333 26.515 L 3.177 26.515 C 2.915 26.478 2.594 26.303 2.413 26.091 L 2.395 26.07 L 2.089 25.496 L 2.089 22.024 L 2.516 21.402 L 2.543 21.377 C 2.713 21.223 2.992 21.094 3.205 21.063 L 19.417 21.063 C 19.622 21.081 19.892 21.191 20.051 21.321 L 20.415 21.685 C 20.489 21.771 20.584 21.913 20.619 22.021 C 20.644 22.095 20.666 22.212 20.673 22.291 L 20.673 25.561 L 20.547 25.703 Z M 19.377 25.515 L 19.673 25.181 L 19.673 22.358 L 19.378 22.063 L 3.276 22.063 L 3.089 22.334 L 3.089 25.246 L 3.119 25.303 L 3.213 25.491 C 3.218 25.501 3.222 25.509 3.225 25.515 L 9.333 25.515 L 9.333 38.677 L 9.63 39.011 L 13.211 39.011 C 13.213 39.004 13.216 38.996 13.221 38.987 L 13.315 38.799 L 13.345 38.742 L 13.345 25.515 Z M 24.372 39.622 C 24.073 39.406 23.777 39.121 23.533 38.815 C 23.286 38.507 23.071 38.14 22.927 37.779 C 22.781 37.413 22.701 37.016 22.695 36.683 L 22.695 24.391 C 22.701 24.058 22.781 23.661 22.927 23.295 C 23.071 22.934 23.286 22.567 23.533 22.259 C 23.777 21.953 24.073 21.668 24.372 21.452 C 24.699 21.215 25.127 21.077 25.491 21.063 L 40.779 21.063 C 41.142 21.077 41.57 21.213 41.906 21.447 C 42.217 21.666 42.52 21.957 42.758 22.267 C 42.993 22.574 43.2 22.937 43.343 23.295 C 43.489 23.661 43.569 24.058 43.575 24.391 L 43.575 36.683 C 43.569 37.016 43.489 37.413 43.343 37.779 C 43.2 38.137 42.993 38.5 42.758 38.807 C 42.52 39.117 42.217 39.408 41.906 39.627 C 41.57 39.861 41.142 39.997 40.779 40.011 L 25.491 40.011 C 25.127 39.997 24.699 39.859 24.372 39.622 Z M 25.491 39.011 L 40.779 39.011 C 40.976 39.025 41.108 38.965 41.332 38.807 C 41.581 38.634 41.772 38.449 41.964 38.199 C 42.158 37.946 42.297 37.702 42.415 37.407 C 42.53 37.12 42.581 36.91 42.575 36.683 L 42.575 24.391 C 42.581 24.164 42.53 23.954 42.415 23.667 C 42.297 23.372 42.158 23.128 41.964 22.875 C 41.772 22.625 41.581 22.44 41.332 22.267 C 41.108 22.109 40.976 22.049 40.779 22.063 L 25.491 22.063 C 25.295 22.049 25.172 22.107 24.958 22.262 C 24.716 22.438 24.517 22.629 24.313 22.883 C 24.112 23.135 23.972 23.374 23.855 23.667 C 23.74 23.954 23.689 24.164 23.695 24.391 L 23.695 36.683 C 23.689 36.91 23.74 37.12 23.855 37.407 C 23.972 37.7 24.112 37.939 24.313 38.191 C 24.517 38.445 24.716 38.636 24.958 38.812 C 25.172 38.967 25.295 39.025 25.491 39.011 Z M 38.563 35.531 L 27.707 35.531 L 27.707 25.515 L 38.563 25.515 Z M 28.707 26.515 L 28.707 34.531 L 37.563 34.531 L 37.563 26.515 Z M 51.724 30.475 L 51.724 39.026 L 51.268 39.672 L 51.242 39.697 C 51.081 39.846 50.811 39.975 50.608 40.011 L 46.912 40.011 C 46.707 39.985 46.406 39.831 46.248 39.691 L 45.712 39.048 L 45.712 22.179 C 45.727 22.056 45.776 21.879 45.834 21.777 C 45.869 21.716 45.89 21.677 45.905 21.647 L 45.965 21.526 L 46.68 21.063 L 50.612 21.063 L 51.421 21.357 L 60.132 30.505 L 60.132 22.179 C 60.163 21.966 60.292 21.687 60.446 21.517 L 60.476 21.485 L 61.128 21.063 L 65.183 21.063 L 65.805 21.49 L 65.83 21.517 C 65.984 21.687 66.113 21.966 66.144 22.179 L 66.144 39.015 L 65.722 39.667 L 65.69 39.697 C 65.52 39.851 65.241 39.98 65.028 40.011 L 61.071 40.011 L 60.321 39.404 Z M 61.425 39.011 L 64.955 39.011 L 65.144 38.719 L 65.144 22.25 L 64.873 22.063 L 61.424 22.063 L 61.132 22.252 L 61.132 33.005 L 50.859 22.217 L 50.436 22.063 L 46.976 22.063 L 46.732 22.221 C 46.723 22.236 46.738 22.21 46.712 22.256 L 46.712 38.686 L 46.983 39.011 L 50.51 39.011 L 50.724 38.708 L 50.724 27.995 L 60.999 38.666 Z M 82.692 39.82 C 82.575 39.903 82.365 39.966 82.219 39.983 L 79.783 39.983 C 79.631 39.964 79.408 39.891 79.295 39.797 C 79.232 39.744 79.168 39.687 79.121 39.641 L 79.079 39.598 L 74.319 31.658 L 74.319 39.015 L 73.897 39.667 L 73.865 39.697 C 73.695 39.851 73.416 39.98 73.203 40.011 L 69.535 40.011 C 69.32 39.989 69.01 39.835 68.843 39.691 L 68.307 39.048 L 68.307 22.179 C 68.338 21.966 68.467 21.687 68.621 21.517 L 68.646 21.49 L 69.268 21.063 L 74.449 21.063 L 75.311 21.415 L 81.02 30.984 C 81.886 29.566 82.611 28.363 83.637 26.628 C 84.663 24.893 85.662 23.203 86.633 21.561 L 86.716 21.42 L 87.548 21.063 L 92.762 21.063 L 93.387 21.492 L 93.409 21.517 C 93.553 21.684 93.673 21.964 93.695 22.179 L 93.695 39.048 L 93.579 39.187 L 93.129 39.725 C 92.97 39.865 92.7 39.985 92.495 40.011 L 88.799 40.011 C 88.596 39.975 88.326 39.846 88.165 39.697 L 88.139 39.672 L 87.683 39.026 L 87.683 31.642 L 82.951 39.6 L 82.909 39.641 C 82.853 39.695 82.77 39.764 82.692 39.82 Z M 79.881 38.983 L 82.143 38.983 C 82.157 38.973 82.154 38.975 82.163 38.968 L 88.683 28.004 L 88.683 38.708 L 88.897 39.011 L 92.427 39.011 L 92.695 38.686 L 92.695 22.222 L 92.655 22.203 L 92.452 22.063 L 87.754 22.063 L 87.41 22.21 C 86.466 23.809 85.524 25.401 84.497 27.138 C 83.47 28.875 82.45 30.568 81.441 32.212 L 81.009 32.917 L 74.623 22.215 L 74.253 22.063 L 69.578 22.063 L 69.307 22.25 L 69.307 38.686 L 69.578 39.011 L 73.13 39.011 L 73.319 38.719 L 73.319 28.044 L 79.869 38.972 C 79.874 38.977 79.878 38.98 79.881 38.983 Z M 96.123 21.777 C 96.158 21.716 96.179 21.677 96.194 21.647 L 96.254 21.526 L 96.969 21.063 L 113.413 21.063 C 113.616 21.099 113.886 21.228 114.047 21.377 L 114.068 21.397 L 114.529 22.012 L 114.529 25.54 L 114.025 26.2 L 114.112 26.071 C 114.036 26.183 113.897 26.33 113.787 26.393 C 113.685 26.451 113.508 26.5 113.385 26.515 L 102.013 26.515 L 102.013 27.94 C 102.163 27.857 102.345 27.796 102.493 27.783 L 111.733 27.783 C 111.938 27.809 112.226 27.948 112.385 28.089 L 112.619 28.349 C 112.745 28.499 112.855 28.76 112.877 28.955 L 112.877 32.119 C 112.855 32.314 112.778 32.538 112.652 32.688 L 112.367 33.033 C 112.206 33.151 111.936 33.252 111.733 33.263 L 102.493 33.263 C 102.354 33.256 102.168 33.189 102.013 33.109 L 102.013 34.531 L 113.385 34.531 C 113.508 34.546 113.685 34.595 113.787 34.653 C 113.897 34.716 114.036 34.863 114.112 34.975 L 114.025 34.846 L 114.529 35.506 L 114.529 39.026 L 114.073 39.672 L 114.047 39.697 C 113.886 39.846 113.616 39.975 113.413 40.011 L 97.201 40.011 C 96.996 39.985 96.695 39.831 96.537 39.691 L 96.001 39.048 L 96.001 22.179 C 96.016 22.056 96.065 21.879 96.123 21.777 Z M 97.001 22.256 L 97.001 38.686 L 97.272 39.011 L 113.315 39.011 L 113.529 38.708 L 113.529 35.844 L 113.289 35.531 L 101.301 35.531 L 101.013 35.098 L 101.013 26.127 C 101.033 26.03 101.078 25.893 101.13 25.798 L 101.211 25.515 L 113.289 25.515 L 113.529 25.202 L 113.529 22.346 L 113.317 22.063 L 97.265 22.063 L 97.021 22.221 C 97.012 22.236 97.027 22.21 97.001 22.256 Z M 111.664 28.783 L 102.539 28.783 L 102.349 29.018 L 102.349 32.059 L 102.518 32.263 L 111.71 32.263 L 111.877 32.056 L 111.877 29.018 Z M 116.645 21.777 C 116.68 21.716 116.701 21.677 116.716 21.647 L 116.776 21.526 L 117.491 21.063 L 133.935 21.063 C 134.138 21.099 134.408 21.228 134.569 21.377 L 134.59 21.397 L 135.051 22.012 L 135.051 25.54 L 134.547 26.2 L 134.634 26.071 C 134.558 26.183 134.419 26.33 134.309 26.393 C 134.207 26.451 134.03 26.5 133.907 26.515 L 122.535 26.515 L 122.535 27.94 C 122.685 27.857 122.867 27.796 123.015 27.783 L 132.255 27.783 C 132.46 27.809 132.748 27.948 132.907 28.089 L 133.141 28.349 C 133.267 28.499 133.377 28.76 133.399 28.955 L 133.399 32.119 C 133.377 32.314 133.3 32.538 133.174 32.688 L 132.889 33.033 C 132.728 33.151 132.458 33.252 132.255 33.263 L 123.015 33.263 C 122.876 33.256 122.69 33.189 122.535 33.109 L 122.535 34.531 L 133.907 34.531 C 134.03 34.546 134.207 34.595 134.309 34.653 C 134.419 34.716 134.558 34.863 134.634 34.975 L 134.547 34.846 L 135.051 35.506 L 135.051 39.026 L 134.595 39.672 L 134.569 39.697 C 134.408 39.846 134.138 39.975 133.935 40.011 L 117.723 40.011 C 117.518 39.985 117.217 39.831 117.059 39.691 L 116.523 39.048 L 116.523 22.179 C 116.538 22.056 116.587 21.879 116.645 21.777 Z M 117.523 22.256 L 117.523 38.686 L 117.794 39.011 L 133.837 39.011 L 134.051 38.708 L 134.051 35.844 L 133.811 35.531 L 121.823 35.531 L 121.535 35.098 L 121.535 26.127 C 121.555 26.03 121.6 25.893 121.652 25.798 L 121.733 25.515 L 133.811 25.515 L 134.051 25.202 L 134.051 22.346 L 133.839 22.063 L 117.787 22.063 L 117.543 22.221 C 117.534 22.236 117.549 22.21 117.523 22.256 Z M 132.186 28.783 L 123.061 28.783 L 122.871 29.018 L 122.871 32.059 L 123.04 32.263 L 132.232 32.263 L 132.399 32.056 L 132.399 29.018 Z M 155.037 26.229 C 154.87 26.373 154.59 26.493 154.375 26.515 L 149.303 26.515 L 149.303 38.992 L 148.997 39.566 L 148.979 39.587 C 148.798 39.799 148.477 39.974 148.215 40.011 L 144.547 40.011 C 144.332 39.989 144.032 39.847 143.865 39.703 L 143.291 39.057 L 143.291 26.515 L 138.135 26.515 C 137.873 26.478 137.552 26.303 137.371 26.091 L 137.353 26.07 L 137.047 25.496 L 137.047 22.024 L 137.474 21.402 L 137.501 21.377 C 137.671 21.223 137.95 21.094 138.163 21.063 L 154.375 21.063 C 154.58 21.081 154.85 21.191 155.009 21.321 L 155.373 21.685 C 155.447 21.771 155.542 21.913 155.577 22.021 C 155.602 22.095 155.624 22.212 155.631 22.291 L 155.631 25.561 L 155.505 25.703 Z M 154.335 25.515 L 154.631 25.181 L 154.631 22.358 L 154.336 22.063 L 138.234 22.063 L 138.047 22.334 L 138.047 25.246 L 138.077 25.303 L 138.171 25.491 C 138.176 25.501 138.18 25.509 138.183 25.515 L 144.291 25.515 L 144.291 38.677 L 144.588 39.011 L 148.169 39.011 C 148.171 39.004 148.174 38.996 148.179 38.987 L 148.273 38.799 L 148.303 38.742 L 148.303 25.515 Z" style="" transform="matrix(0.49231502413749695, 0, 0, 0.5767160058021545, -0.745975982337832, 22.285169933515334)"/>
</svg>