<svg width="149" height="44" viewBox="0 0 246 76" fill="none" xmlns="http://www.w3.org/2000/svg">
<rect width="246" height="76" rx="7" fill="black"/>
<path d="M35.4507 34.1669C35.3636 33.3937 35.0042 32.7947 34.3726 32.37C33.7409 31.9399 32.9459 31.7248 31.9876 31.7248C31.3015 31.7248 30.708 31.8337 30.2071 32.0515C29.7061 32.2638 29.3168 32.5579 29.0391 32.9336C28.7669 33.3039 28.6307 33.7259 28.6307 34.1996C28.6307 34.5971 28.7233 34.9401 28.9084 35.2287C29.099 35.5173 29.3468 35.7596 29.6517 35.9556C29.962 36.1462 30.2942 36.3068 30.6481 36.4375C31.0021 36.5627 31.3424 36.6662 31.6691 36.7479L33.3026 37.1726C33.8362 37.3033 34.3834 37.4802 34.9443 37.7035C35.5051 37.9267 36.0251 38.2208 36.5043 38.5856C36.9835 38.9504 37.3701 39.4023 37.6641 39.9414C37.9636 40.4805 38.1133 41.1257 38.1133 41.8771C38.1133 42.8246 37.8683 43.6658 37.3782 44.4009C36.8936 45.136 36.1885 45.7159 35.2628 46.1406C34.3426 46.5653 33.2291 46.7777 31.9223 46.7777C30.6699 46.7777 29.5863 46.579 28.6716 46.1815C27.7568 45.784 27.0408 45.2204 26.5235 44.4908C26.0062 43.7557 25.7203 42.8845 25.6659 41.8771H28.1978C28.2468 42.4815 28.4429 42.9852 28.7859 43.3881C29.1344 43.7856 29.5782 44.0824 30.1172 44.2784C30.6617 44.469 31.258 44.5643 31.9059 44.5643C32.6192 44.5643 33.2536 44.4527 33.809 44.2294C34.3698 44.0007 34.8109 43.6849 35.1321 43.282C35.4534 42.8736 35.614 42.3971 35.614 41.8526C35.614 41.3571 35.4725 40.9515 35.1893 40.6357C34.9116 40.3198 34.5332 40.0585 34.054 39.8516C33.5803 39.6446 33.044 39.4622 32.445 39.3043L30.4684 38.7653C29.129 38.4004 28.0672 37.8641 27.2831 37.1562C26.5044 36.4484 26.1151 35.5118 26.1151 34.3466C26.1151 33.3828 26.3765 32.5415 26.8992 31.8228C27.4219 31.104 28.1298 30.5459 29.0228 30.1484C29.9158 29.7455 30.9231 29.544 32.0448 29.544C33.1774 29.544 34.1765 29.7428 35.0423 30.1403C35.9135 30.5378 36.5996 31.085 37.1005 31.782C37.6015 32.4735 37.8629 33.2685 37.8846 34.1669H35.4507ZM46.2176 46.7532C45.0415 46.7532 44.0151 46.4837 43.1385 45.9446C42.2618 45.4055 41.5812 44.6514 41.0965 43.6822C40.6119 42.7129 40.3696 41.5804 40.3696 40.2844C40.3696 38.9831 40.6119 37.8451 41.0965 36.8704C41.5812 35.8957 42.2618 35.1388 43.1385 34.5998C44.0151 34.0607 45.0415 33.7912 46.2176 33.7912C47.3938 33.7912 48.4202 34.0607 49.2968 34.5998C50.1735 35.1388 50.8541 35.8957 51.3387 36.8704C51.8233 37.8451 52.0657 38.9831 52.0657 40.2844C52.0657 41.5804 51.8233 42.7129 51.3387 43.6822C50.8541 44.6514 50.1735 45.4055 49.2968 45.9446C48.4202 46.4837 47.3938 46.7532 46.2176 46.7532ZM46.2258 44.7031C46.9881 44.7031 47.6197 44.5017 48.1207 44.0987C48.6216 43.6958 48.9919 43.1594 49.2315 42.4897C49.4765 41.82 49.599 41.0821 49.599 40.2763C49.599 39.4759 49.4765 38.7408 49.2315 38.071C48.9919 37.3958 48.6216 36.854 48.1207 36.4457C47.6197 36.0373 46.9881 35.8331 46.2258 35.8331C45.4581 35.8331 44.821 36.0373 44.3146 36.4457C43.8136 36.854 43.4407 37.3958 43.1956 38.071C42.956 38.7408 42.8362 39.4759 42.8362 40.2763C42.8362 41.0821 42.956 41.82 43.1956 42.4897C43.4407 43.1594 43.8136 43.6958 44.3146 44.0987C44.821 44.5017 45.4581 44.7031 46.2258 44.7031ZM62.7387 41.2972V33.9545H65.189V46.5H62.7877V44.3274H62.657C62.3684 44.9972 61.9056 45.5553 61.2685 46.0018C60.6369 46.4428 59.8501 46.6634 58.9081 46.6634C58.1022 46.6634 57.3889 46.4864 56.7682 46.1325C56.1529 45.7731 55.6682 45.2422 55.3143 44.5398C54.9658 43.8374 54.7916 42.9689 54.7916 41.9343V33.9545H57.2337V41.6403C57.2337 42.4951 57.4706 43.1758 57.9443 43.6822C58.418 44.1886 59.0333 44.4418 59.7902 44.4418C60.2476 44.4418 60.7022 44.3274 61.1542 44.0987C61.6116 43.87 61.99 43.5243 62.2895 43.0614C62.5944 42.5986 62.7441 42.0105 62.7387 41.2972ZM68.4703 46.5V33.9545H70.8307V35.9474H70.9614C71.1901 35.2723 71.5931 34.7414 72.1702 34.3548C72.7529 33.9627 73.4117 33.7667 74.1468 33.7667C74.2993 33.7667 74.4789 33.7721 74.6859 33.783C74.8982 33.7939 75.0643 33.8075 75.1841 33.8239V36.1598C75.0861 36.1326 74.9118 36.1026 74.6614 36.07C74.4109 36.0318 74.1604 36.0128 73.9099 36.0128C73.3328 36.0128 72.8182 36.1353 72.3663 36.3803C71.9198 36.6199 71.5658 36.9548 71.3045 37.3849C71.0431 37.8097 70.9124 38.2943 70.9124 38.8388V46.5H68.4703ZM82.1327 46.7532C80.9184 46.7532 79.873 46.4782 78.9963 45.9283C78.1251 45.3729 77.4554 44.6078 76.9871 43.6332C76.5188 42.6585 76.2847 41.5423 76.2847 40.2844C76.2847 39.0103 76.5243 37.8859 77.0034 36.9112C77.4826 35.9311 78.1578 35.1661 79.029 34.6161C79.9002 34.0662 80.9266 33.7912 82.1082 33.7912C83.0611 33.7912 83.9105 33.9682 84.6565 34.3221C85.4024 34.6706 86.0041 35.1606 86.4615 35.7923C86.9243 36.4239 87.1993 37.1617 87.2864 38.0057H84.9097C84.779 37.4176 84.4795 36.9112 84.0112 36.4865C83.5484 36.0618 82.9277 35.8494 82.149 35.8494C81.4684 35.8494 80.8721 36.0291 80.3603 36.3885C79.8539 36.7424 79.4591 37.2488 79.176 37.9077C78.8929 38.5611 78.7513 39.3343 78.7513 40.2273C78.7513 41.142 78.8901 41.9316 79.1678 42.5959C79.4455 43.2602 79.8376 43.7747 80.344 44.1396C80.8558 44.5044 81.4575 44.6868 82.149 44.6868C82.6118 44.6868 83.0311 44.6024 83.4068 44.4336C83.788 44.2594 84.1065 44.0116 84.3624 43.6903C84.6238 43.3691 84.8062 42.9825 84.9097 42.5305H87.2864C87.1993 43.3419 86.9352 44.0661 86.4942 44.7031C86.0531 45.3402 85.4623 45.8411 84.7218 46.206C83.9867 46.5708 83.1237 46.7532 82.1327 46.7532ZM95.305 46.7532C94.069 46.7532 93.0045 46.4891 92.1115 45.9609C91.2239 45.4273 90.5378 44.6786 90.0532 43.7148C89.5741 42.7456 89.3345 41.6103 89.3345 40.3089C89.3345 39.0239 89.5741 37.8913 90.0532 36.9112C90.5378 35.9311 91.213 35.1661 92.0788 34.6161C92.95 34.0662 93.9682 33.7912 95.1335 33.7912C95.8413 33.7912 96.5274 33.9083 97.1917 34.1424C97.856 34.3765 98.4523 34.7441 98.9804 35.245C99.5086 35.746 99.9251 36.3967 100.23 37.1971C100.535 37.9921 100.687 38.9586 100.687 40.0966V40.9624H90.7148V39.1328H98.2943C98.2943 38.4903 98.1637 37.9213 97.9023 37.4258C97.6409 36.9248 97.2734 36.5301 96.7997 36.2415C96.3314 35.9529 95.7814 35.8086 95.1498 35.8086C94.4637 35.8086 93.8648 35.9774 93.3529 36.315C92.8465 36.6471 92.4545 37.0827 92.1768 37.6218C91.9045 38.1554 91.7684 38.7353 91.7684 39.3615V40.7908C91.7684 41.6294 91.9154 42.3427 92.2095 42.9308C92.509 43.5188 92.9255 43.968 93.4591 44.2784C93.9927 44.5833 94.6162 44.7358 95.3295 44.7358C95.7923 44.7358 96.2143 44.6705 96.5955 44.5398C96.9766 44.4036 97.3061 44.2022 97.5838 43.9354C97.8615 43.6686 98.0738 43.3391 98.2208 42.9471L100.532 43.3636C100.347 44.0443 100.015 44.6405 99.5358 45.1523C99.0621 45.6587 98.4659 46.0535 97.7471 46.3366C97.0338 46.6143 96.2198 46.7532 95.305 46.7532ZM123.573 35.2124H121.025C120.927 34.6678 120.744 34.1887 120.478 33.7749C120.211 33.361 119.884 33.0098 119.497 32.7212C119.111 32.4326 118.678 32.2148 118.199 32.0678C117.725 31.9208 117.221 31.8473 116.688 31.8473C115.724 31.8473 114.861 32.0896 114.099 32.5742C113.342 33.0588 112.743 33.7694 112.302 34.706C111.866 35.6425 111.648 36.786 111.648 38.1364C111.648 39.4976 111.866 40.6465 112.302 41.5831C112.743 42.5196 113.345 43.2275 114.107 43.7067C114.869 44.1858 115.727 44.4254 116.68 44.4254C117.208 44.4254 117.709 44.3546 118.182 44.2131C118.662 44.0661 119.095 43.851 119.481 43.5678C119.868 43.2847 120.194 42.9389 120.461 42.5305C120.734 42.1167 120.921 41.643 121.025 41.1094L123.573 41.1175C123.437 41.9397 123.173 42.6966 122.781 43.3881C122.394 44.0742 121.896 44.6677 121.286 45.1687C120.682 45.6642 119.99 46.0481 119.212 46.3203C118.433 46.5926 117.584 46.7287 116.663 46.7287C115.215 46.7287 113.924 46.3857 112.792 45.6996C111.659 45.008 110.766 44.0198 110.113 42.7347C109.465 41.4497 109.141 39.9169 109.141 38.1364C109.141 36.3504 109.468 34.8176 110.121 33.538C110.774 32.253 111.667 31.2674 112.8 30.5813C113.933 29.8898 115.22 29.544 116.663 29.544C117.551 29.544 118.379 29.672 119.146 29.9279C119.919 30.1784 120.614 30.5486 121.229 31.0387C121.844 31.5233 122.353 32.1168 122.756 32.8192C123.159 33.5162 123.432 34.3139 123.573 35.2124ZM131.682 46.7532C130.505 46.7532 129.479 46.4837 128.602 45.9446C127.726 45.4055 127.045 44.6514 126.56 43.6822C126.076 42.7129 125.833 41.5804 125.833 40.2844C125.833 38.9831 126.076 37.8451 126.56 36.8704C127.045 35.8957 127.726 35.1388 128.602 34.5998C129.479 34.0607 130.505 33.7912 131.682 33.7912C132.858 33.7912 133.884 34.0607 134.761 34.5998C135.637 35.1388 136.318 35.8957 136.803 36.8704C137.287 37.8451 137.53 38.9831 137.53 40.2844C137.53 41.5804 137.287 42.7129 136.803 43.6822C136.318 44.6514 135.637 45.4055 134.761 45.9446C133.884 46.4837 132.858 46.7532 131.682 46.7532ZM131.69 44.7031C132.452 44.7031 133.084 44.5017 133.585 44.0987C134.086 43.6958 134.456 43.1594 134.695 42.4897C134.94 41.82 135.063 41.0821 135.063 40.2763C135.063 39.4759 134.94 38.7408 134.695 38.071C134.456 37.3958 134.086 36.854 133.585 36.4457C133.084 36.0373 132.452 35.8331 131.69 35.8331C130.922 35.8331 130.285 36.0373 129.778 36.4457C129.278 36.854 128.905 37.3958 128.659 38.071C128.42 38.7408 128.3 39.4759 128.3 40.2763C128.3 41.0821 128.42 41.82 128.659 42.4897C128.905 43.1594 129.278 43.6958 129.778 44.0987C130.285 44.5017 130.922 44.7031 131.69 44.7031ZM144.952 46.745C143.939 46.745 143.035 46.4864 142.24 45.9691C141.451 45.4464 140.83 44.7031 140.378 43.7393C139.931 42.7701 139.708 41.6076 139.708 40.2518C139.708 38.896 139.934 37.7362 140.386 36.7724C140.844 35.8086 141.47 35.0708 142.265 34.5589C143.06 34.0471 143.961 33.7912 144.968 33.7912C145.747 33.7912 146.373 33.9219 146.847 34.1832C147.326 34.4392 147.696 34.7386 147.958 35.0817C148.224 35.4247 148.431 35.7269 148.578 35.9883H148.725V29.7727H151.167V46.5H148.782V44.5479H148.578C148.431 44.8147 148.219 45.1197 147.941 45.4627C147.669 45.8058 147.293 46.1052 146.814 46.3612C146.335 46.6171 145.714 46.745 144.952 46.745ZM145.491 44.6623C146.193 44.6623 146.787 44.4772 147.271 44.1069C147.761 43.7312 148.132 43.2112 148.382 42.5469C148.638 41.8826 148.766 41.1094 148.766 40.2273C148.766 39.3561 148.641 38.5937 148.39 37.9403C148.14 37.2869 147.772 36.7778 147.288 36.413C146.803 36.0482 146.204 35.8658 145.491 35.8658C144.756 35.8658 144.143 36.0563 143.653 36.4375C143.163 36.8187 142.793 37.3387 142.542 37.9975C142.297 38.6564 142.175 39.3996 142.175 40.2273C142.175 41.0658 142.3 41.82 142.551 42.4897C142.801 43.1594 143.171 43.6903 143.661 44.0824C144.157 44.469 144.767 44.6623 145.491 44.6623ZM160.06 46.7532C158.824 46.7532 157.759 46.4891 156.866 45.9609C155.979 45.4273 155.293 44.6786 154.808 43.7148C154.329 42.7456 154.089 41.6103 154.089 40.3089C154.089 39.0239 154.329 37.8913 154.808 36.9112C155.293 35.9311 155.968 35.1661 156.834 34.6161C157.705 34.0662 158.723 33.7912 159.888 33.7912C160.596 33.7912 161.282 33.9083 161.947 34.1424C162.611 34.3765 163.207 34.7441 163.735 35.245C164.263 35.746 164.68 36.3967 164.985 37.1971C165.29 37.9921 165.442 38.9586 165.442 40.0966V40.9624H155.47V39.1328H163.049C163.049 38.4903 162.919 37.9213 162.657 37.4258C162.396 36.9248 162.028 36.5301 161.555 36.2415C161.086 35.9529 160.536 35.8086 159.905 35.8086C159.219 35.8086 158.62 35.9774 158.108 36.315C157.601 36.6471 157.209 37.0827 156.932 37.6218C156.659 38.1554 156.523 38.7353 156.523 39.3615V40.7908C156.523 41.6294 156.67 42.3427 156.964 42.9308C157.264 43.5188 157.68 43.968 158.214 44.2784C158.748 44.5833 159.371 44.7358 160.084 44.7358C160.547 44.7358 160.969 44.6705 161.35 44.5398C161.732 44.4036 162.061 44.2022 162.339 43.9354C162.616 43.6686 162.829 43.3391 162.976 42.9471L165.287 43.3636C165.102 44.0443 164.77 44.6405 164.291 45.1523C163.817 45.6587 163.221 46.0535 162.502 46.3366C161.789 46.6143 160.975 46.7532 160.06 46.7532Z" fill="white"/>
<path d="M199.5 19.7126C195.048 19.7127 190.741 21.2971 187.35 24.1823C183.959 27.0674 181.705 31.065 180.992 35.4597C180.279 39.8545 181.153 44.3596 183.457 48.169C185.762 51.9784 189.347 54.8435 193.57 56.2516C194.508 56.4157 194.859 55.8532 194.859 55.361C194.859 54.9157 194.836 53.4391 194.836 51.8688C190.125 52.736 188.906 50.7204 188.531 49.6657C188.115 48.64 187.456 47.731 186.609 47.0172C185.953 46.6657 185.016 45.7985 186.586 45.7751C187.186 45.8402 187.761 46.0488 188.262 46.3833C188.764 46.7179 189.178 47.1685 189.469 47.6969C189.725 48.1576 190.07 48.5632 190.483 48.8903C190.897 49.2175 191.371 49.4599 191.878 49.6036C192.385 49.7473 192.916 49.7895 193.44 49.7278C193.963 49.666 194.47 49.5015 194.93 49.2438C195.011 48.2906 195.436 47.3994 196.125 46.736C191.953 46.2673 187.594 44.65 187.594 37.4782C187.567 35.6148 188.255 33.8118 189.516 32.4392C188.942 30.8196 189.009 29.0422 189.703 27.4704C189.703 27.4704 191.273 26.9782 194.859 29.3923C197.927 28.5485 201.166 28.5485 204.234 29.3923C207.82 26.9548 209.391 27.4704 209.391 27.4704C210.084 29.0422 210.151 30.8196 209.578 32.4392C210.843 33.8095 211.531 35.614 211.5 37.4782C211.5 44.6735 207.117 46.2673 202.945 46.736C203.393 47.1896 203.737 47.7341 203.956 48.3326C204.174 48.9312 204.261 49.5697 204.211 50.2048C204.211 52.7127 204.187 54.7282 204.187 55.361C204.187 55.8533 204.539 56.4392 205.477 56.2517C209.693 54.8321 213.267 51.9602 215.562 48.1489C217.857 44.3375 218.722 39.8347 218.004 35.4443C217.286 31.0538 215.031 27.0614 211.641 24.1798C208.252 21.2981 203.949 19.7149 199.5 19.7126Z" fill="white"/>
</svg>
