<svg width="165" height="165" viewBox="0 0 165 165" fill="none" xmlns="http://www.w3.org/2000/svg">
<g opacity="0.6">
<path d="M82.3438 163.905C127.388 163.905 163.904 127.389 163.904 82.3442C163.904 37.2996 127.388 0.783691 82.3438 0.783691C37.2991 0.783691 0.783203 37.2996 0.783203 82.3442C0.783203 127.389 37.2991 163.905 82.3438 163.905Z" stroke="#FF6D00" stroke-miterlimit="10"/>
<path d="M82.3431 150.652C120.068 150.652 150.651 120.069 150.651 82.344C150.651 44.6186 120.068 14.0361 82.3431 14.0361C44.6176 14.0361 14.0352 44.6186 14.0352 82.344C14.0352 120.069 44.6176 150.652 82.3431 150.652Z" stroke="#FF6D00" stroke-miterlimit="10"/>
<path d="M137.38 82.3424C137.38 51.9466 112.739 27.3059 82.3431 27.3059C51.9473 27.3059 27.3066 51.9466 27.3066 82.3424C27.3066 112.738 51.9473 137.379 82.3431 137.379C112.739 137.379 137.38 112.738 137.38 82.3424Z" stroke="#FF6D00" stroke-miterlimit="10"/>
<path d="M124.108 82.3447C124.108 59.2785 105.41 40.5796 82.3433 40.5796C59.277 40.5796 40.5781 59.2785 40.5781 82.3447C40.5781 105.411 59.277 124.11 82.3433 124.11C105.41 124.11 124.108 105.411 124.108 82.3447Z" stroke="#FF6D00" stroke-miterlimit="10"/>
<path d="M82.3489 110.85C98.0962 110.85 110.862 98.084 110.862 82.3367C110.862 66.5894 98.0962 53.8237 82.3489 53.8237C66.6016 53.8237 53.8359 66.5894 53.8359 82.3367C53.8359 98.084 66.6016 110.85 82.3489 110.85Z" stroke="#FF6D00" stroke-miterlimit="10"/>
</g>
</svg>
