<svg width="171" height="171" viewBox="0 0 171 171" fill="none" xmlns="http://www.w3.org/2000/svg">
<g opacity="0.6">
<mask id="mask0_641_18112" style="mask-type:alpha" maskUnits="userSpaceOnUse" x="0" y="0" width="171" height="171">
<rect width="171" height="171" fill="#D9D9D9"/>
</mask>
<g mask="url(#mask0_641_18112)">
<path d="M142.016 144.016C173.867 112.165 173.867 60.5236 142.016 28.6722C110.165 -3.17916 58.5234 -3.17916 26.672 28.6722C-5.17935 60.5236 -5.17935 112.165 26.672 144.016C58.5234 175.868 110.165 175.868 142.016 144.016Z" stroke="#FF6D00" stroke-miterlimit="10"/>
<path d="M132.645 134.645C159.321 107.969 159.321 64.7192 132.645 38.0433C105.969 11.3674 62.7191 11.3674 36.0432 38.0433C9.36727 64.7192 9.36727 107.969 36.0432 134.645C62.7191 161.321 105.969 161.321 132.645 134.645Z" stroke="#FF6D00" stroke-miterlimit="10"/>
<path d="M128.5 119.194C146.644 94.8072 141.583 60.3295 117.196 42.186C92.8088 24.0425 58.3311 29.1038 40.1876 53.4906C22.0441 77.8775 27.1054 112.355 51.4923 130.499C75.8791 148.642 110.357 143.581 128.5 119.194Z" stroke="#FF6D00" stroke-miterlimit="10"/>
<path d="M122.496 103.335C131.879 82.2636 122.404 57.575 101.333 48.1915C80.2616 38.808 55.573 48.2829 46.1895 69.3543C36.806 90.4256 46.2809 115.114 67.3523 124.498C88.4236 133.881 113.112 124.406 122.496 103.335Z" stroke="#FF6D00" stroke-miterlimit="10"/>
<path d="M84.3489 114.85C100.096 114.85 112.862 102.084 112.862 86.3367C112.862 70.5894 100.096 57.8237 84.3489 57.8237C68.6016 57.8237 55.8359 70.5894 55.8359 86.3367C55.8359 102.084 68.6016 114.85 84.3489 114.85Z" stroke="#FF6D00" stroke-miterlimit="10"/>
</g>
</g>
</svg>
