<svg xmlns="http://www.w3.org/2000/svg" width="40" height="40" fill="none" viewBox="0 0 96 96" id="copy"><path stroke="#000" stroke-width="5" d="M17 27C17 22.0294 21.0294 18 26 18H51.7443C53.5742 18 55.3313 18.7165 56.6393 19.9961L64.5629 27.7472L67.1196 30.4891C68.328 31.785 69 33.491 69 35.2629V77C69 81.9706 64.9706 86 60 86H26C21.0294 86 17 81.9706 17 77V27Z"></path><path stroke="#000" stroke-width="5" d="M26 19V19C26 14.0294 30.0294 10 35 10H60.7443C62.5742 10 64.3313 10.7165 65.6393 11.9961L73.5629 19.7472L76.1196 22.4891C77.328 23.785 78 25.491 78 27.2629V69C78 73.9706 73.9706 78 69 78H67.5"></path><path stroke="#000" stroke-width="5" d="M54 19V31C54 32.6569 55.3431 34 57 34H69"></path></svg>