<svg width="11" height="11" viewBox="0 0 11 11" fill="none" xmlns="http://www.w3.org/2000/svg">
<path d="M6.80566 5.49987L10.8912 1.41458C11.0363 1.26951 11.0363 1.03474 10.8912 0.889716L10.1104 0.108621C10.0409 0.0391276 9.94649 0 9.84799 0C9.74946 0 9.6551 0.0391276 9.58555 0.108621L5.50001 4.19422L1.41446 0.108621C1.34492 0.0391276 1.25055 0 1.15202 0C1.05353 0 0.959132 0.0391276 0.889615 0.108621L0.108806 0.889716C-0.0362688 1.03474 -0.0362688 1.26951 0.108806 1.41458L4.19435 5.49989L0.109212 9.5847C-0.0357913 9.72978 -0.0357913 9.96454 0.109212 10.1096L0.890068 10.8907C0.959562 10.9602 1.05396 10.9993 1.15248 10.9993C1.251 10.9993 1.34537 10.9602 1.41494 10.8907L5.49998 6.80554L9.58505 10.8907C9.65459 10.9602 9.74896 10.9993 9.84749 10.9993C9.94603 10.9993 10.0404 10.9602 10.1099 10.8907L10.8908 10.1096C11.0358 9.96454 11.0358 9.72978 10.8908 9.5847L6.80566 5.49987Z" fill="#666666"/>
</svg>
