<svg width="79" height="64" viewBox="0 0 79 64" fill="none" xmlns="http://www.w3.org/2000/svg">
<path d="M2.2 59.4102C0.98 59.4102 0 60.4002 0 61.6102C0 62.8302 0.99 63.8102 2.2 63.8102C3.42 63.8102 4.4 62.8202 4.4 61.6102C4.4 60.3902 3.42 59.4102 2.2 59.4102Z" fill="#FECF25"/>
<path d="M16.9305 59.4102C15.7105 59.4102 14.7305 60.4002 14.7305 61.6102C14.7305 62.8302 15.7205 63.8102 16.9305 63.8102C18.1505 63.8102 19.1305 62.8202 19.1305 61.6102C19.1305 60.3902 18.1505 59.4102 16.9305 59.4102Z" fill="#FECF25"/>
<path d="M31.6609 59.4102C30.4409 59.4102 29.4609 60.4002 29.4609 61.6102C29.4609 62.8302 30.4509 63.8102 31.6609 63.8102C32.8709 63.8102 33.8609 62.8202 33.8609 61.6102C33.8609 60.3902 32.8709 59.4102 31.6609 59.4102Z" fill="#FECF25"/>
<path d="M46.3797 59.4102C45.1597 59.4102 44.1797 60.4002 44.1797 61.6102C44.1797 62.8302 45.1697 63.8102 46.3797 63.8102C47.5997 63.8102 48.5797 62.8202 48.5797 61.6102C48.5897 60.3902 47.5997 59.4102 46.3797 59.4102Z" fill="#FECF25"/>
<path d="M61.1102 59.4102C59.8902 59.4102 58.9102 60.4002 58.9102 61.6102C58.9102 62.8302 59.9002 63.8102 61.1102 63.8102C62.3302 63.8102 63.3102 62.8202 63.3102 61.6102C63.3102 60.3902 62.3302 59.4102 61.1102 59.4102Z" fill="#FECF25"/>
<path d="M75.8406 59.4102C74.6206 59.4102 73.6406 60.4002 73.6406 61.6102C73.6406 62.8302 74.6306 63.8102 75.8406 63.8102C77.0606 63.8102 78.0406 62.8202 78.0406 61.6102C78.0406 60.3902 77.0506 59.4102 75.8406 59.4102Z" fill="#FECF25"/>
<path d="M2.2 47.5298C0.98 47.5298 0 48.5198 0 49.7298C0 50.9398 0.99 51.9298 2.2 51.9298C3.42 51.9298 4.4 50.9398 4.4 49.7298C4.4 48.5198 3.42 47.5298 2.2 47.5298Z" fill="#FECF25"/>
<path d="M16.9305 51.9298C18.1455 51.9298 19.1305 50.9448 19.1305 49.7298C19.1305 48.5148 18.1455 47.5298 16.9305 47.5298C15.7154 47.5298 14.7305 48.5148 14.7305 49.7298C14.7305 50.9448 15.7154 51.9298 16.9305 51.9298Z" fill="#FECF25"/>
<path d="M31.6609 51.9298C32.876 51.9298 33.8609 50.9448 33.8609 49.7298C33.8609 48.5148 32.876 47.5298 31.6609 47.5298C30.4459 47.5298 29.4609 48.5148 29.4609 49.7298C29.4609 50.9448 30.4459 51.9298 31.6609 51.9298Z" fill="#FECF25"/>
<path d="M46.3797 51.9298C47.5947 51.9298 48.5797 50.9448 48.5797 49.7298C48.5797 48.5148 47.5947 47.5298 46.3797 47.5298C45.1647 47.5298 44.1797 48.5148 44.1797 49.7298C44.1797 50.9448 45.1647 51.9298 46.3797 51.9298Z" fill="#FECF25"/>
<path d="M61.1102 47.5298C59.8902 47.5298 58.9102 48.5198 58.9102 49.7298C58.9102 50.9398 59.9002 51.9298 61.1102 51.9298C62.3302 51.9298 63.3102 50.9398 63.3102 49.7298C63.3102 48.5198 62.3302 47.5298 61.1102 47.5298Z" fill="#FECF25"/>
<path d="M75.8406 47.5298C74.6206 47.5298 73.6406 48.5198 73.6406 49.7298C73.6406 50.9398 74.6306 51.9298 75.8406 51.9298C77.0606 51.9298 78.0406 50.9398 78.0406 49.7298C78.0406 48.5198 77.0506 47.5298 75.8406 47.5298Z" fill="#FECF25"/>
<path d="M2.2 35.6499C0.98 35.6499 0 36.6399 0 37.8499C0 39.0699 0.99 40.0499 2.2 40.0499C3.42 40.0499 4.4 39.0599 4.4 37.8499C4.4 36.6299 3.42 35.6499 2.2 35.6499Z" fill="#FECF25"/>
<path d="M16.9305 40.0499C18.1455 40.0499 19.1305 39.0649 19.1305 37.8499C19.1305 36.6349 18.1455 35.6499 16.9305 35.6499C15.7154 35.6499 14.7305 36.6349 14.7305 37.8499C14.7305 39.0649 15.7154 40.0499 16.9305 40.0499Z" fill="#FECF25"/>
<path d="M31.6609 40.0499C32.876 40.0499 33.8609 39.0649 33.8609 37.8499C33.8609 36.6349 32.876 35.6499 31.6609 35.6499C30.4459 35.6499 29.4609 36.6349 29.4609 37.8499C29.4609 39.0649 30.4459 40.0499 31.6609 40.0499Z" fill="#FECF25"/>
<path d="M46.3797 40.0499C47.5947 40.0499 48.5797 39.0649 48.5797 37.8499C48.5797 36.6349 47.5947 35.6499 46.3797 35.6499C45.1647 35.6499 44.1797 36.6349 44.1797 37.8499C44.1797 39.0649 45.1647 40.0499 46.3797 40.0499Z" fill="#FECF25"/>
<path d="M61.1102 35.6499C59.8902 35.6499 58.9102 36.6399 58.9102 37.8499C58.9102 39.0699 59.9002 40.0499 61.1102 40.0499C62.3302 40.0499 63.3102 39.0599 63.3102 37.8499C63.3102 36.6299 62.3302 35.6499 61.1102 35.6499Z" fill="#FECF25"/>
<path d="M75.8406 35.6499C74.6206 35.6499 73.6406 36.6399 73.6406 37.8499C73.6406 39.0699 74.6306 40.0499 75.8406 40.0499C77.0606 40.0499 78.0406 39.0599 78.0406 37.8499C78.0406 36.6299 77.0506 35.6499 75.8406 35.6499Z" fill="#FECF25"/>
<path d="M2.2 23.7598C0.98 23.7598 0 24.7498 0 25.9598C0 27.1798 0.99 28.1598 2.2 28.1598C3.42 28.1598 4.4 27.1698 4.4 25.9598C4.4 24.7498 3.42 23.7598 2.2 23.7598Z" fill="#FECF25"/>
<path d="M16.9305 23.7598C15.7105 23.7598 14.7305 24.7498 14.7305 25.9598C14.7305 27.1798 15.7205 28.1598 16.9305 28.1598C18.1505 28.1598 19.1305 27.1698 19.1305 25.9598C19.1305 24.7498 18.1505 23.7598 16.9305 23.7598Z" fill="#FECF25"/>
<path d="M31.6609 23.7598C30.4409 23.7598 29.4609 24.7498 29.4609 25.9598C29.4609 27.1798 30.4509 28.1598 31.6609 28.1598C32.8709 28.1598 33.8609 27.1698 33.8609 25.9598C33.8609 24.7498 32.8709 23.7598 31.6609 23.7598Z" fill="#FECF25"/>
<path d="M46.3797 23.7598C45.1597 23.7598 44.1797 24.7498 44.1797 25.9598C44.1797 27.1798 45.1697 28.1598 46.3797 28.1598C47.5997 28.1598 48.5797 27.1698 48.5797 25.9598C48.5897 24.7498 47.5997 23.7598 46.3797 23.7598Z" fill="#FECF25"/>
<path d="M61.1102 23.7598C59.8902 23.7598 58.9102 24.7498 58.9102 25.9598C58.9102 27.1798 59.9002 28.1598 61.1102 28.1598C62.3302 28.1598 63.3102 27.1698 63.3102 25.9598C63.3102 24.7498 62.3302 23.7598 61.1102 23.7598Z" fill="#FECF25"/>
<path d="M75.8406 23.7598C74.6206 23.7598 73.6406 24.7498 73.6406 25.9598C73.6406 27.1798 74.6306 28.1598 75.8406 28.1598C77.0606 28.1598 78.0406 27.1698 78.0406 25.9598C78.0406 24.7498 77.0506 23.7598 75.8406 23.7598Z" fill="#FECF25"/>
<path d="M2.2 11.8799C0.98 11.8799 0 12.8699 0 14.0799C0 15.2899 0.99 16.2799 2.2 16.2799C3.42 16.2799 4.4 15.2899 4.4 14.0799C4.4 12.8699 3.42 11.8799 2.2 11.8799Z" fill="#FECF25"/>
<path d="M16.9305 16.2799C18.1455 16.2799 19.1305 15.2949 19.1305 14.0799C19.1305 12.8649 18.1455 11.8799 16.9305 11.8799C15.7154 11.8799 14.7305 12.8649 14.7305 14.0799C14.7305 15.2949 15.7154 16.2799 16.9305 16.2799Z" fill="#FECF25"/>
<path d="M31.6609 16.2799C32.876 16.2799 33.8609 15.2949 33.8609 14.0799C33.8609 12.8649 32.876 11.8799 31.6609 11.8799C30.4459 11.8799 29.4609 12.8649 29.4609 14.0799C29.4609 15.2949 30.4459 16.2799 31.6609 16.2799Z" fill="#FECF25"/>
<path d="M46.3797 16.2799C47.5947 16.2799 48.5797 15.2949 48.5797 14.0799C48.5797 12.8649 47.5947 11.8799 46.3797 11.8799C45.1647 11.8799 44.1797 12.8649 44.1797 14.0799C44.1797 15.2949 45.1647 16.2799 46.3797 16.2799Z" fill="#FECF25"/>
<path d="M61.1102 11.8799C59.8902 11.8799 58.9102 12.8699 58.9102 14.0799C58.9102 15.2899 59.9002 16.2799 61.1102 16.2799C62.3302 16.2799 63.3102 15.2899 63.3102 14.0799C63.3102 12.8699 62.3302 11.8799 61.1102 11.8799Z" fill="#FECF25"/>
<path d="M75.8406 11.8799C74.6206 11.8799 73.6406 12.8699 73.6406 14.0799C73.6406 15.2899 74.6306 16.2799 75.8406 16.2799C77.0606 16.2799 78.0406 15.2899 78.0406 14.0799C78.0406 12.8699 77.0506 11.8799 75.8406 11.8799Z" fill="#FECF25"/>
<path d="M2.2 0C0.99 0 0 0.99 0 2.2C0 3.42 0.99 4.4 2.2 4.4C3.42 4.4 4.4 3.41 4.4 2.2C4.4 0.99 3.42 0 2.2 0Z" fill="#FECF25"/>
<path d="M16.9305 4.4C18.1455 4.4 19.1305 3.41503 19.1305 2.2C19.1305 0.984974 18.1455 0 16.9305 0C15.7154 0 14.7305 0.984974 14.7305 2.2C14.7305 3.41503 15.7154 4.4 16.9305 4.4Z" fill="#FECF25"/>
<path d="M31.6609 4.4C32.876 4.4 33.8609 3.41503 33.8609 2.2C33.8609 0.984974 32.876 0 31.6609 0C30.4459 0 29.4609 0.984974 29.4609 2.2C29.4609 3.41503 30.4459 4.4 31.6609 4.4Z" fill="#FECF25"/>
<path d="M46.3797 4.4C47.5947 4.4 48.5797 3.41503 48.5797 2.2C48.5797 0.984974 47.5947 0 46.3797 0C45.1647 0 44.1797 0.984974 44.1797 2.2C44.1797 3.41503 45.1647 4.4 46.3797 4.4Z" fill="#FECF25"/>
<path d="M61.1102 0C59.8902 0 58.9102 0.99 58.9102 2.2C58.9102 3.42 59.9002 4.4 61.1102 4.4C62.3302 4.4 63.3102 3.41 63.3102 2.2C63.3102 0.99 62.3302 0 61.1102 0Z" fill="#FECF25"/>
<path d="M75.8406 0C74.6206 0 73.6406 0.99 73.6406 2.2C73.6406 3.42 74.6306 4.4 75.8406 4.4C77.0606 4.4 78.0406 3.41 78.0406 2.2C78.0406 0.99 77.0506 0 75.8406 0Z" fill="#FECF25"/>
</svg>
