<svg width="214" height="58" viewBox="0 0 214 58" fill="none" xmlns="http://www.w3.org/2000/svg">
<g opacity="0.3">
<path d="M213.281 56.9151C201.435 56.9151 201.435 44.1323 189.589 44.1323C177.743 44.1323 177.743 56.9151 165.897 56.9151C154.05 56.9151 154.05 44.1323 142.204 44.1323C130.358 44.1323 130.358 56.9151 118.512 56.9151C106.666 56.9151 106.666 44.1323 94.8194 44.1323C82.9732 44.1323 82.9732 56.9151 71.127 56.9151C59.2809 56.9151 59.2809 44.1323 47.4347 44.1323C35.5885 44.1323 35.5885 56.9151 23.717 56.9151C11.8708 56.9151 11.8708 44.1323 -0.000695147 44.1323" stroke="#3688FF" stroke-width="1.6" stroke-miterlimit="10"/>
<path d="M213.281 35.3487C201.435 35.3487 201.435 22.5659 189.589 22.5659C177.743 22.5659 177.743 35.3487 165.897 35.3487C154.05 35.3487 154.05 22.5659 142.204 22.5659C130.358 22.5659 130.358 35.3487 118.512 35.3487C106.666 35.3487 106.666 22.5659 94.8194 22.5659C82.9732 22.5659 82.9732 35.3487 71.127 35.3487C59.2809 35.3487 59.2809 22.5659 47.4347 22.5659C35.5885 22.5659 35.5885 35.3487 23.717 35.3487C11.8708 35.3486 11.8708 22.5659 -0.000695147 22.5659" stroke="#3688FF" stroke-width="1.6" stroke-miterlimit="10"/>
<path d="M213.281 13.7827C201.435 13.7827 201.435 0.999999 189.589 0.999999C177.743 0.999998 177.743 13.7827 165.897 13.7827C154.05 13.7827 154.05 0.999997 142.204 0.999997C130.358 0.999996 130.358 13.7827 118.512 13.7827C106.666 13.7827 106.666 0.999995 94.8194 0.999995C82.9732 0.999994 82.9732 13.7827 71.127 13.7827C59.2809 13.7827 59.2809 0.999993 47.4347 0.999993C35.5885 0.999992 35.5885 13.7827 23.717 13.7827C11.8708 13.7827 11.8708 0.999991 -0.000695147 0.999991" stroke="#3688FF" stroke-width="1.6" stroke-miterlimit="10"/>
</g>
</svg>
