<svg xmlns="http://www.w3.org/2000/svg" enable-background="new 0 0 24 24" viewBox="0 0 48 48" id="windows" width="48" height="48"><path points="0 20.695 9.835 22.05 9.835 12.664 0 12.664" d="M0 41.39L19.67 44.1L19.67 25.328L0 25.328Z"/><path points="9.835 1.95 0 3.305 0 11.454 9.835 11.454" d="M19.67 3.9L0 6.61L0 22.908L19.67 22.908Z"/><path points="10.918 22.194 24 24 24 12.664 10.918 12.664" d="M21.836 44.388L48 48L48 25.328L21.836 25.328Z"/><path points="24 0 10.918 1.806 10.918 11.454 24 11.454" d="M48 0L21.836 3.612L21.836 22.908L48 22.908Z"/></svg>